# xmcd
#
# Track frame offsets: 
#        150
#        24375
#        50257
#        68520
#        94488
#        113160
#        132251
#        160272
#        184709
#        199915
#        218822
#        241082
#
# Disc length: 3494 seconds
#
# Revision: 0
# Processed by: cddbd v1.5.2PL0 Copyright (c) Steve Scherf et al.
# Submitted via: ExactAudioCopy v1.3
#
DISCID=a00da40c
DTITLE=Various Artist - The Legacy Of New Jack Swing [CD3)
DYEAR=2016
DGENRE=New Jack Swing
TTITLE0=The Jacksons - Nothin (That Compares 2 U)
TTITLE1=Hi-Five - I Like The Way (The Kissing Game)
TTITLE2=Kiara - Strawberry Letter 23
TTITLE3=Prince Markie Dee and The Soul Convention - Something Special (S
TTITLE3=ummer Of 93 Remix)
TTITLE4=Tashan - Love Is Forever (Joe ''The Butcher'' Mix)
TTITLE5=Dede Lopez - Party
TTITLE6=R. Kelly and Public Announcement - She's Got That Vibe (Up All N
TTITLE6=ight, No Sleep Till Bedtime Mix (Sad Excuse))
TTITLE7=Johnny Kemp - Just Got Paid (12'' Version)
TTITLE8=Aaliyah - The Thing I Like
TTITLE9=La Rue - A Night To Remember
TTITLE10=Eric Gable - Process Of Elimination
TTITLE11=Monica - Now I'm Gone
EXTD=
EXTT0=
EXTT1=
EXTT2=
EXTT3=
EXTT4=
EXTT5=
EXTT6=
EXTT7=
EXTT8=
EXTT9=
EXTT10=
EXTT11=
PLAYORDER=
